PathFileType	4	(X/Y/Z)	s03c0101.trc
DataRate	CameraRate	NumFrames	NumMarkers	Units	OrigDataRate	OrigDataStartFrame	OrigNumFrames
200	200	6	52	mm	200	1000	2000
Frame#	Time	racr			lacr			c7			jug			rlel			rdr			llel			ldr			s2			lic			ric			lasi			rasi			rpsi			lpsi			rgt			lgt			rth1			rth2			rth3			rth4			rlfc			rmfc			rsh1			rsh2			rsh3			rsh4			rlmal			rmmal			rcal			rtoe			rmt5			rmt1			lth1			lth2			lth4			lth3			llfc			lmfc			lsh1			lsh2			lsh3			lsh4			llmal			lmmal			lcal			ltoe			lmt1			lmt5			SBIKE			LBIKE			RBIKE			
		X1	Y1	Z1	X2	Y2	Z2	X3	Y3	Z3	X4	Y4	Z4	X5	Y5	Z5	X6	Y6	Z6	X7	Y7	Z7	X8	Y8	Z8	X9	Y9	Z9	X10	Y10	Z10	X11	Y11	Z11	X12	Y12	Z12	X13	Y13	Z13	X14	Y14	Z14	X15	Y15	Z15	X16	Y16	Z16	X17	Y17	Z17	X18	Y18	Z18	X19	Y19	Z19	X20	Y20	Z20	X21	Y21	Z21	X22	Y22	Z22	X23	Y23	Z23	X24	Y24	Z24	X25	Y25	Z25	X26	Y26	Z26	X27	Y27	Z27	X28	Y28	Z28	X29	Y29	Z29	X30	Y30	Z30	X31	Y31	Z31	X32	Y32	Z32	X33	Y33	Z33	X34	Y34	Z34	X35	Y35	Z35	X36	Y36	Z36	X37	Y37	Z37	X38	Y38	Z38	X39	Y39	Z39	X40	Y40	Z40	X41	Y41	Z41	X42	Y42	Z42	X43	Y43	Z43	X44	Y44	Z44	X45	Y45	Z45	X46	Y46	Z46	X47	Y47	Z47	X48	Y48	Z48	X49	Y49	Z49	X50	Y50	Z50	X51	Y51	Z51	X52	Y52	Z52	
1000	5.0000	449.718343	1429.757173	-113.052702	473.351136	1407.462820	-414.993389	396.795867	1507.458869	-273.474559	410.484647	1333.760390	-258.684345	503.736708	1167.955444	-24.708941	725.976772	966.027525	-62.430383	554.529237	1157.172295	-496.917243	751.346062	926.305082	-432.475315	-109.880851	1207.517083	-292.065557	67.725768	1233.287278	-461.532810	30.840749	1273.625464	-100.352155	87.763449	1171.289737	-419.548424	72.055712	1207.335836	-143.282322	-93.161230	1266.750596	-255.957384	-81.646247	1256.823265	-334.602962	10.211407	1200.341221	-84.074582	12.505038	1103.590562	-471.115342	141.112028	1134.741965	-53.231309	230.065147	1136.164163	-49.486472	306.757472	1096.680570	-42.126362	239.129873	1167.285558	-69.581444	430.841297	1041.467637	-57.085602	447.388831	1016.462791	-186.070095	362.064852	894.130321	-35.671751	337.079899	809.309139	-47.238563	273.237302	748.454057	-47.416772	363.841146	795.033315	-70.122204	198.732356	633.468335	-64.986600	227.011814	639.275964	-150.717475	125.817702	609.725764	-103.360100	409.403813	485.084847	-124.197077	298.349748	516.171558	-48.160861	320.507341	521.896464	-160.889992	96.214638	970.253777	-491.899726	160.037547	911.494553	-496.326010	191.140033	931.618700	-493.619605	188.085657	827.505219	-486.038169	270.171220	724.547319	-466.957413	278.525971	716.731486	-344.224136	206.651718	563.534835	-476.535983	210.451014	481.182520	-456.987153	168.620673	401.857759	-441.950369	245.282640	476.667979	-438.679545	134.397438	285.090722	-414.063490	175.291467	291.999068	-333.802195	68.952176	276.006077	-365.483313	343.345064	128.513570	-357.288730	254.928472	169.836629	-316.190839	223.007397	155.706176	-431.615534	-214.009538	945.736276	-236.575412	-8.620179	80.734272	-433.025585	-8.864301	82.205739	-32.649792	
1001	5.0050	448.247406	1429.729442	-111.410503	473.808717	1407.143197	-413.238885	396.559635	1507.441914	-272.090971	409.740213	1333.719685	-257.161981	502.453873	1168.166650	-23.537598	724.961950	966.654093	-62.219069	554.191105	1156.888402	-496.269905	751.269429	925.889268	-432.110866	-110.451311	1208.623881	-292.593746	67.457379	1234.112913	-462.164464	29.497385	1275.094659	-100.802188	86.934497	1171.857122	-419.893578	71.340794	1207.508620	-143.324293	-93.789704	1268.012876	-256.638576	-82.113896	1258.015324	-335.288072	9.558616	1200.904968	-84.548052	12.179763	1104.510053	-471.732654	140.693109	1134.201451	-53.986257	229.749443	1135.460313	-50.472467	306.244496	1095.828905	-43.735847	238.802734	1166.841235	-70.352783	430.553007	1040.386796	-59.409329	446.436082	1016.116476	-188.373503	363.807354	891.505552	-37.162251	340.087582	806.211661	-48.341339	277.081853	744.402321	-47.899049	366.921548	792.264701	-71.273497	204.364964	627.912911	-64.617070	232.290134	634.095721	-150.619652	131.835416	602.023821	-102.682619	419.062602	486.174203	-124.415014	307.550448	513.492169	-48.202854	328.879222	520.472559	-161.023697	96.845875	972.516803	-492.570769	161.042275	914.207621	-497.387780	191.981979	934.447884	-494.513383	189.568301	830.242410	-487.838406	271.677756	727.148108	-469.167218	280.625873	719.182139	-346.177659	205.624959	566.990482	-477.956359	207.918936	483.998084	-456.911499	165.077208	406.050699	-442.701897	242.643402	479.157651	-438.821208	129.313429	290.341619	-414.839226	170.929839	296.226073	-334.458104	63.669629	283.448646	-365.655564	325.501437	121.780443	-348.696772	246.118616	171.330972	-316.062826	213.997796	158.367207	-431.557317	-214.116969	945.754610	-236.802544	-8.634018	80.758571	-433.103757	-8.651081	81.956681	-32.835342	
1002	5.0100	446.871514	1429.682806	-109.897668	474.239699	1406.781736	-411.595232	396.337025	1507.343140	-270.793879	409.082362	1333.605735	-255.705699	501.182013	1168.153506	-22.462981	724.051436	967.204218	-62.159439	553.904189	1156.576444	-495.670423	751.304326	925.486035	-431.975737	-110.897140	1209.782955	-292.953579	66.878975	1234.973045	-462.523127	28.218537	1276.408021	-101.146573	86.312636	1172.581661	-420.561064	70.695283	1207.487641	-143.206789	-94.346389	1269.005160	-257.250685	-82.620233	1259.209620	-335.606142	8.844413	1201.308463	-84.902893	11.926368	1105.564053	-472.203756	140.200430	1133.168845	-54.448738	229.247678	1133.991725	-51.207369	305.660104	1094.125972	-44.910895	238.326669	1165.569352	-70.686174	429.764706	1038.057193	-61.204256	445.000727	1014.125583	-190.271737	365.055659	887.689514	-38.362892	342.546306	802.011552	-49.119428	280.475759	739.307616	-48.274627	369.535223	788.386622	-72.165529	209.851396	621.269644	-64.232715	237.250918	627.871290	-150.315960	137.553603	593.104839	-101.947211	428.387080	486.841221	-124.600776	316.136890	510.184821	-47.919775	337.143396	518.228623	-160.790571	97.675986	975.075515	-493.073017	162.280353	917.238169	-498.288588	193.080119	937.607858	-495.195986	191.379323	833.385235	-489.548843	273.552337	730.199513	-471.493296	283.274279	722.310456	-348.263983	205.002075	570.909354	-479.356305	205.990854	487.944500	-458.054164	161.887819	410.788401	-443.470853	240.716175	482.619459	-440.135012	124.546925	296.143126	-415.440461	166.341506	301.372683	-334.914168	58.785258	291.469530	-365.839372	317.970561	123.268896	-350.907825	237.522636	173.543413	-316.037116	205.343756	162.530213	-432.657860	-214.202647	945.758452	-237.033282	-8.645168	80.793455	-433.203216	-8.701853	82.027607	-32.906927	
1003	5.0150	445.616344	1429.541747	-108.442715	474.599127	1406.301897	-410.013402	396.151000	1507.198465	-269.612439	408.394512	1333.442737	-254.361385	499.965794	1168.112612	-21.591190	723.114487	967.737595	-62.185371	553.692720	1156.204725	-495.063809	751.324990	925.096268	-431.999910	-111.434951	1210.549008	-293.142627	66.271341	1235.732079	-462.736844	27.032825	1277.596296	-101.387700	85.358599	1173.111550	-420.629331	70.120386	1207.282871	-142.934978	-94.718828	1269.758944	-257.661978	-83.328154	1260.136905	-335.715967	7.841141	1201.131847	-85.328024	11.574219	1106.700875	-472.666851	139.604328	1131.471623	-54.738895	228.678859	1131.656998	-51.685742	304.684748	1091.149374	-46.379789	237.857365	1163.544083	-70.719184	428.702702	1034.349033	-62.820366	443.123073	1010.671611	-191.776040	365.813510	882.772794	-39.214537	344.584755	796.790263	-49.650789	283.378454	733.173343	-48.528901	371.720915	783.411025	-72.751039	215.065093	613.374766	-63.596797	241.913970	620.651900	-150.048558	143.012836	583.159169	-101.172932	437.070404	486.923133	-124.538646	324.353127	506.161298	-47.429630	344.738458	515.577310	-160.651560	98.576734	977.845546	-493.417007	163.697853	920.545812	-499.066414	194.255896	941.160510	-495.865008	193.450704	836.857547	-491.133411	275.798766	733.590964	-473.750766	286.086143	725.525159	-350.487367	204.745875	575.224500	-480.801055	204.408911	492.282316	-459.252744	159.062884	415.920875	-444.264955	239.056373	486.437396	-441.351721	120.130413	302.379265	-415.992463	161.915618	307.043237	-335.347185	54.217313	299.915637	-365.991334	309.248196	124.840969	-353.273893	229.141148	176.174723	-316.089489	196.558288	166.118754	-432.381038	-214.310612	945.767136	-237.228460	-8.679349	80.800889	-433.291252	-8.757530	82.072320	-32.974179	
1004	5.0200	444.582846	1429.480974	-107.190086	474.942670	1405.772054	-408.639340	396.019254	1507.059019	-268.696787	407.832986	1333.298755	-253.201693	498.858697	1168.037141	-20.838670	722.320972	968.188655	-62.356759	553.566852	1155.809711	-494.454341	751.348799	924.710164	-432.221392	-111.870768	1211.433489	-293.263169	65.574479	1236.517287	-462.828574	25.893402	1278.557316	-101.491693	84.556550	1173.905393	-421.054384	69.617296	1206.904281	-142.514027	-95.095000	1270.304891	-257.819901	-83.858943	1261.075828	-335.738051	7.007487	1200.607867	-85.516185	11.249419	1107.886948	-472.974293	138.954524	1129.212501	-54.783727	227.989968	1128.455913	-51.855049	303.173462	1087.183556	-47.695445	237.439837	1160.294555	-70.606171	427.296992	1029.446824	-64.003110	441.001424	1005.991685	-192.745789	366.200570	876.777923	-39.732461	346.171592	790.306655	-49.999811	285.976190	725.943323	-48.649434	373.507553	777.369558	-73.091474	219.988254	604.586670	-63.088137	246.220051	612.377916	-149.710933	148.268392	572.042920	-100.207440	445.443460	486.571064	-124.475267	332.114429	501.216497	-46.710842	352.063642	511.900733	-160.125553	99.596168	980.665078	-493.719585	165.217562	924.093758	-499.794006	195.556702	944.967340	-496.390616	195.753514	840.636779	-492.655590	278.325291	737.372363	-476.074954	289.469273	729.292684	-352.657782	204.832289	579.818692	-482.181000	203.137582	497.008250	-460.373914	156.529652	421.491264	-444.941479	237.713460	490.620797	-442.578567	115.876264	309.130255	-416.570518	157.928026	313.101392	-335.805183	49.577899	308.784715	-366.534419	299.202039	125.576071	-353.239590	220.984920	179.598468	-316.273368	188.133279	170.570607	-432.318025	-214.432881	945.797912	-237.530813	-8.725493	80.821853	-433.389036	-8.833699	82.154491	-33.048855	
1005	5.0250	443.671484	1429.322924	-106.067252	475.186765	1405.301048	-407.413501	395.911514	1506.860566	-267.951956	407.322214	1333.096960	-252.232785	497.831128	1167.960933	-20.399427	721.672504	968.551335	-62.585884	553.461605	1155.349682	-493.887723	751.219941	924.391380	-432.286890	-112.415745	1211.850173	-293.354055	64.852155	1237.154180	-462.788657	24.849478	1279.279086	-101.495948	83.790730	1174.513481	-421.145662	69.187213	1206.361598	-141.949102	-95.397419	1270.617665	-257.815919	-84.324502	1261.617967	-335.586659	6.076026	1199.661589	-85.597020	10.887933	1109.175585	-473.212573	138.164436	1126.264840	-54.689011	227.224434	1124.378907	-51.770004	302.296702	1082.290474	-47.434325	237.003958	1156.375425	-70.005980	425.539534	1023.352658	-64.881677	438.982452	1000.310875	-192.995799	366.050799	869.627369	-40.067000	347.420206	782.849828	-50.079247	288.319310	717.498997	-48.557582	375.379857	770.258756	-72.691614	224.644359	594.839366	-62.724870	250.361783	603.119512	-149.412298	153.347750	559.840691	-99.486183	453.048738	485.827991	-124.430085	339.186761	495.379854	-45.568058	359.199097	507.411205	-159.450482	100.599321	983.600121	-494.017729	166.866750	927.739890	-500.433746	196.956463	948.901021	-496.880620	198.262895	844.552246	-494.086732	281.045448	741.318234	-478.434383	293.012602	733.164879	-354.837206	205.159146	584.699172	-483.597469	202.350740	502.919973	-462.955244	154.223101	427.422784	-445.660958	236.484947	495.203521	-443.443530	111.803655	316.162880	-417.125416	154.335399	319.280408	-336.294628	45.578188	317.872872	-366.663069	289.548170	127.085524	-353.189185	212.945790	183.471756	-316.401359	179.953252	175.572860	-432.236532	-214.575804	945.784153	-237.871572	-8.766194	80.772090	-433.494497	-8.935717	82.266739	-33.151146	
